# xmcd
#
# Track frame offsets: 
#        151
#        15473
#        26071
#        40849
#        59973
#        80156
#        94786
#        105239
#        120650
#        148568
#        162312
#        177465
#        189279
#        202416
#        216725
#        229660
#        240086
#        254750
#        268799
#        282098
#        299097
#
# Disc length: 4375 seconds
#
# Revision: 0
# Processed by: cddbd v1.4PL0 Copyright (c) Steve Scherf et al.
# Submitted via: ExactAudioCopy v0.90b3
#
DISCID=46111515
DTITLE=Dr. Feelgood - Wolfman Calling [CD)
DYEAR=2003
DGENRE=Rock and Roll
TTITLE0=Watch Your Step
TTITLE1=My Babe
TTITLE2=Neighbour Neighbour
TTITLE3=You Upset Me Baby (live) 
TTITLE4=Rock Me Baby
TTITLE5=You'll Be Mine
TTITLE6=The Blues Had A Baby And They Named It Rock'n'Roll (No. 2)
TTITLE7=I Can't Be Satisfied
TTITLE8=Mojo Workin' (live)
TTITLE9=One Kiss
TTITLE10=She Moves Me
TTITLE11=Tore Down 
TTITLE12=Dust My Broom
TTITLE13=Rolling And Tumbling
TTITLE14=You Don't Love Me
TTITLE15=Homework (live)
TTITLE16=Checking Up On My Baby (live)
TTITLE17=Don't Start Me Talking
TTITLE18=Dimples
TTITLE19=Mad Man Blues (live)
TTITLE20=Lee's BBC radio feature on Howlin' Wolf
EXTD=
EXTT0=
EXTT1=
EXTT2=
EXTT3=
EXTT4=
EXTT5=
EXTT6=
EXTT7=
EXTT8=
EXTT9=
EXTT10=
EXTT11=
EXTT12=
EXTT13=
EXTT14=
EXTT15=
EXTT16=
EXTT17=
EXTT18=
EXTT19=
EXTT20=
PLAYORDER=
